<svg version="1.1" xmlns="http://www.w3.org/2000/svg" xmlns:xlink="http://www.w3.org/1999/xlink" width="64px" height="64px" viewBox="0,0,256,256"><defs><linearGradient x1="32.002" y1="7" x2="32.002" y2="57.645" gradientUnits="userSpaceOnUse" id="color-1"><stop offset="0" stop-color="#b780ff" stop-opacity="0.34902"></stop><stop offset="1" stop-color="#dff4ff"></stop></linearGradient><linearGradient x1="32" y1="19.75" x2="32" y2="44.755" gradientUnits="userSpaceOnUse" id="color-2"><stop offset="0" stop-color="#b780ff" stop-opacity="0.34902"></stop><stop offset="1" stop-color="#dff4ff"></stop></linearGradient></defs><g fill="none" fill-rule="nonzero" stroke="none" stroke-width="1" stroke-linecap="butt" stroke-linejoin="miter" stroke-miterlimit="10" stroke-dasharray="" stroke-dashoffset="0" font-family="none" font-weight="none" font-size="none" text-anchor="none" style="mix-blend-mode: normal"><g transform="translate(259.85611,-3.86174) rotate(90) scale(4,4)"><path d="M46.1,57c-0.512,0 -1.026,-0.125 -1.502,-0.376l-12.132,-6.411c-0.294,-0.154 -0.641,-0.154 -0.931,0l-12.134,6.411c-1.087,0.574 -2.381,0.483 -3.378,-0.237c-0.996,-0.721 -1.486,-1.923 -1.279,-3.136l2.303,-13.501c0.065,-0.387 -0.063,-0.781 -0.342,-1.055l-9.739,-9.542c-0.874,-0.856 -1.182,-2.112 -0.803,-3.276c0.38,-1.164 1.368,-1.997 2.58,-2.174l13.439,-1.963c0.392,-0.058 0.73,-0.304 0.905,-0.66l6.033,-12.287c0.545,-1.106 1.648,-1.793 2.88,-1.793c0,0 0,0 0.001,0c1.231,0 2.334,0.687 2.877,1.793l6.032,12.285c0.176,0.357 0.516,0.604 0.909,0.662l13.443,1.964c1.21,0.176 2.197,1.008 2.577,2.171c0.379,1.163 0.072,2.418 -0.802,3.273l-9.744,9.547c-0.28,0.274 -0.407,0.668 -0.342,1.054l2.304,13.502c0.208,1.212 -0.282,2.414 -1.278,3.136c-0.561,0.406 -1.217,0.613 -1.877,0.613zM32,48.097c0.48,0 0.962,0.116 1.4,0.349l12.133,6.411c0.414,0.218 0.89,0.187 1.271,-0.09c0.381,-0.275 0.561,-0.716 0.481,-1.179l-2.304,-13.503c-0.177,-1.032 0.165,-2.086 0.913,-2.818l9.743,-9.546c0.332,-0.326 0.444,-0.784 0.301,-1.226c-0.145,-0.441 -0.505,-0.745 -0.965,-0.813l-13.442,-1.964c-1.045,-0.151 -1.949,-0.809 -2.416,-1.759l-6.032,-12.285c-0.208,-0.422 -0.612,-0.674 -1.083,-0.674v0c-0.471,0 -0.876,0.253 -1.084,0.676l-6.033,12.287c-0.466,0.948 -1.367,1.605 -2.411,1.757l-13.44,1.962c-0.461,0.067 -0.823,0.372 -0.968,0.815c-0.143,0.443 -0.031,0.903 0.302,1.229l9.738,9.541c0.748,0.732 1.09,1.786 0.913,2.819l-2.303,13.501c-0.079,0.464 0.102,0.904 0.481,1.181c0.382,0.275 0.857,0.307 1.271,0.089l12.134,-6.411c0.438,-0.233 0.919,-0.349 1.4,-0.349z" fill="url(#color-1)"></path><path d="M32.909,41.885l5.861,2.987c0.831,0.423 1.805,-0.254 1.647,-1.145l-1.195,-6.757c-0.063,-0.357 0.057,-0.721 0.321,-0.97l5.118,-4.837c0.668,-0.631 0.296,-1.724 -0.63,-1.854l-7.052,-0.994c-0.37,-0.052 -0.689,-0.276 -0.853,-0.599l-3.107,-6.105c-0.423,-0.832 -1.612,-0.832 -2.035,0l-3.108,6.105c-0.164,0.323 -0.484,0.547 -0.853,0.599l-7.052,0.993c-0.926,0.13 -1.297,1.223 -0.63,1.854l5.126,4.844c0.258,0.244 0.377,0.602 0.315,0.952l-1.197,6.768c-0.158,0.891 0.817,1.568 1.647,1.145l5.861,-2.987c0.569,-0.29 1.245,-0.29 1.816,0.001z" fill="url(#color-2)"></path></g></g></svg>